<svg width="61" height="23" viewBox="0 0 61 23" fill="none" xmlns="http://www.w3.org/2000/svg">
<path d="M8.50568 0.045454H12.1534V12.2159C12.1534 13.3409 11.9006 14.3182 11.3949 15.1477C10.8949 15.9773 10.1989 16.6165 9.30682 17.0653C8.41477 17.5142 7.37784 17.7386 6.19602 17.7386C5.14489 17.7386 4.19034 17.554 3.33239 17.1847C2.48011 16.8097 1.80398 16.2415 1.30398 15.4801C0.803977 14.7131 0.556818 13.75 0.5625 12.5909H4.2358C4.24716 13.0511 4.34091 13.446 4.51705 13.7756C4.69886 14.0994 4.94602 14.3494 5.25852 14.5256C5.5767 14.696 5.9517 14.7812 6.38352 14.7812C6.83807 14.7812 7.22159 14.6847 7.53409 14.4915C7.85227 14.2926 8.09375 14.0028 8.25852 13.6222C8.4233 13.2415 8.50568 12.7727 8.50568 12.2159V0.045454ZM20.3311 17.7557C19.0073 17.7557 17.8624 17.4744 16.8965 16.9119C15.9362 16.3437 15.1948 15.554 14.672 14.5426C14.1493 13.5256 13.888 12.3466 13.888 11.0057C13.888 9.65341 14.1493 8.47159 14.672 7.46023C15.1948 6.44318 15.9362 5.65341 16.8965 5.09091C17.8624 4.52273 19.0073 4.23864 20.3311 4.23864C21.655 4.23864 22.797 4.52273 23.7573 5.09091C24.7232 5.65341 25.4675 6.44318 25.9902 7.46023C26.513 8.47159 26.7743 9.65341 26.7743 11.0057C26.7743 12.3466 26.513 13.5256 25.9902 14.5426C25.4675 15.554 24.7232 16.3437 23.7573 16.9119C22.797 17.4744 21.655 17.7557 20.3311 17.7557ZM20.3482 14.9432C20.9505 14.9432 21.4533 14.7727 21.8567 14.4318C22.2601 14.0852 22.5641 13.6136 22.7686 13.017C22.9789 12.4205 23.084 11.7415 23.084 10.9801C23.084 10.2188 22.9789 9.53977 22.7686 8.94318C22.5641 8.34659 22.2601 7.875 21.8567 7.52841C21.4533 7.18182 20.9505 7.00852 20.3482 7.00852C19.7402 7.00852 19.2289 7.18182 18.8141 7.52841C18.405 7.875 18.0953 8.34659 17.8851 8.94318C17.6806 9.53977 17.5783 10.2188 17.5783 10.9801C17.5783 11.7415 17.6806 12.4205 17.8851 13.017C18.0953 13.6136 18.405 14.0852 18.8141 14.4318C19.2289 14.7727 19.7402 14.9432 20.3482 14.9432ZM28.4833 17.5V0.045454H32.114V6.60795H32.2248C32.3839 6.25568 32.614 5.89773 32.9151 5.53409C33.2219 5.16477 33.6197 4.85795 34.1083 4.61364C34.6026 4.36364 35.2162 4.23864 35.9492 4.23864C36.9037 4.23864 37.7844 4.48864 38.5912 4.98864C39.3981 5.48295 40.043 6.23011 40.5259 7.23011C41.0089 8.22443 41.2503 9.47159 41.2503 10.9716C41.2503 12.4318 41.0145 13.6648 40.543 14.6705C40.077 15.6705 39.4407 16.429 38.6339 16.946C37.8327 17.4574 36.935 17.7131 35.9407 17.7131C35.2361 17.7131 34.6367 17.5966 34.1424 17.3636C33.6537 17.1307 33.2532 16.8381 32.9407 16.4858C32.6282 16.1278 32.3895 15.767 32.2248 15.4034H32.0628V17.5H28.4833ZM32.0373 10.9545C32.0373 11.733 32.1452 12.4119 32.3611 12.9915C32.577 13.571 32.8895 14.0227 33.2986 14.3466C33.7077 14.6648 34.2049 14.8239 34.7901 14.8239C35.381 14.8239 35.881 14.6619 36.2901 14.3381C36.6992 14.0085 37.0089 13.554 37.2191 12.9744C37.435 12.3892 37.543 11.7159 37.543 10.9545C37.543 10.1989 37.4378 9.53409 37.2276 8.96023C37.0174 8.38636 36.7077 7.9375 36.2986 7.61364C35.8895 7.28977 35.3867 7.12784 34.7901 7.12784C34.1992 7.12784 33.6992 7.28409 33.2901 7.59659C32.8867 7.90909 32.577 8.35227 32.3611 8.92614C32.1452 9.5 32.0373 10.1761 32.0373 10.9545ZM46.5836 0.045454V17.5H42.9529V0.045454H46.5836ZM51.0135 22.4091C50.5532 22.4091 50.1214 22.3722 49.718 22.2983C49.3203 22.2301 48.9907 22.142 48.7294 22.0341L49.5476 19.3239C49.9737 19.4545 50.3572 19.5256 50.6981 19.5369C51.0447 19.5483 51.343 19.4688 51.593 19.2983C51.8487 19.1278 52.0561 18.8381 52.2152 18.429L52.4282 17.875L47.7322 4.40909H51.5504L54.2606 14.0227H54.397L57.1328 4.40909H60.9765L55.8885 18.9148C55.6441 19.6193 55.3118 20.233 54.8913 20.7557C54.4765 21.2841 53.951 21.6903 53.3146 21.9744C52.6782 22.2642 51.9112 22.4091 51.0135 22.4091Z" fill="#080305"/>
</svg>
